G04 #@! TF.GenerationSoftware,KiCad,Pcbnew,9.0.2*
G04 #@! TF.CreationDate,2025-11-30T05:01:48+08:00*
G04 #@! TF.ProjectId,electric_pass_baseboard,656c6563-7472-4696-935f-706173735f62,rev?*
G04 #@! TF.SameCoordinates,Original*
G04 #@! TF.FileFunction,Paste,Top*
G04 #@! TF.FilePolarity,Positive*
%FSLAX46Y46*%
G04 Gerber Fmt 4.6, Leading zero omitted, Abs format (unit mm)*
G04 Created by KiCad (PCBNEW 9.0.2) date 2025-11-30 05:01:48*
%MOMM*%
%LPD*%
G01*
G04 APERTURE LIST*
G04 Aperture macros list*
%AMRoundRect*
0 Rectangle with rounded corners*
0 $1 Rounding radius*
0 $2 $3 $4 $5 $6 $7 $8 $9 X,Y pos of 4 corners*
0 Add a 4 corners polygon primitive as box body*
4,1,4,$2,$3,$4,$5,$6,$7,$8,$9,$2,$3,0*
0 Add four circle primitives for the rounded corners*
1,1,$1+$1,$2,$3*
1,1,$1+$1,$4,$5*
1,1,$1+$1,$6,$7*
1,1,$1+$1,$8,$9*
0 Add four rect primitives between the rounded corners*
20,1,$1+$1,$2,$3,$4,$5,0*
20,1,$1+$1,$4,$5,$6,$7,0*
20,1,$1+$1,$6,$7,$8,$9,0*
20,1,$1+$1,$8,$9,$2,$3,0*%
%AMRotRect*
0 Rectangle, with rotation*
0 The origin of the aperture is its center*
0 $1 length*
0 $2 width*
0 $3 Rotation angle, in degrees counterclockwise*
0 Add horizontal line*
21,1,$1,$2,0,0,$3*%
%AMFreePoly0*
4,1,17,0.555355,0.685355,0.570000,0.650000,0.570000,0.000000,0.555355,-0.035355,0.520000,-0.050000,0.170000,-0.050000,0.170000,-0.650000,0.155355,-0.685355,0.120000,-0.700000,-0.530000,-0.700000,-0.565355,-0.685355,-0.580000,-0.650000,-0.580000,0.650000,-0.565355,0.685355,-0.530000,0.700000,0.520000,0.700000,0.555355,0.685355,0.555355,0.685355,$1*%
%AMFreePoly1*
4,1,17,0.565355,0.685355,0.580000,0.650000,0.580000,-0.650000,0.565355,-0.685355,0.530000,-0.700000,-0.120000,-0.700000,-0.155355,-0.685355,-0.170000,-0.650000,-0.170000,-0.050000,-0.520000,-0.050000,-0.555355,-0.035355,-0.570000,0.000000,-0.570000,0.650000,-0.555355,0.685355,-0.520000,0.700000,0.530000,0.700000,0.565355,0.685355,0.565355,0.685355,$1*%
G04 Aperture macros list end*
%ADD10R,0.530000X1.070000*%
%ADD11RoundRect,0.200000X0.200000X0.275000X-0.200000X0.275000X-0.200000X-0.275000X0.200000X-0.275000X0*%
%ADD12RoundRect,0.200000X-0.200000X-0.275000X0.200000X-0.275000X0.200000X0.275000X-0.200000X0.275000X0*%
%ADD13R,1.600000X0.700000*%
%ADD14R,1.500000X1.200000*%
%ADD15R,2.200000X1.200000*%
%ADD16R,1.500000X1.600000*%
%ADD17FreePoly0,90.000000*%
%ADD18FreePoly1,90.000000*%
%ADD19R,1.200000X0.600000*%
%ADD20R,2.000000X0.850000*%
%ADD21RoundRect,0.225000X0.225000X0.250000X-0.225000X0.250000X-0.225000X-0.250000X0.225000X-0.250000X0*%
%ADD22RoundRect,0.250000X0.565685X-0.070711X-0.070711X0.565685X-0.565685X0.070711X0.070711X-0.565685X0*%
%ADD23RoundRect,0.225000X-0.225000X-0.250000X0.225000X-0.250000X0.225000X0.250000X-0.225000X0.250000X0*%
%ADD24RoundRect,0.250000X0.255000X0.440000X-0.255000X0.440000X-0.255000X-0.440000X0.255000X-0.440000X0*%
%ADD25RoundRect,0.150000X0.825000X0.150000X-0.825000X0.150000X-0.825000X-0.150000X0.825000X-0.150000X0*%
%ADD26RoundRect,0.200000X0.053033X-0.335876X0.335876X-0.053033X-0.053033X0.335876X-0.335876X0.053033X0*%
%ADD27RoundRect,0.200000X-0.275000X0.200000X-0.275000X-0.200000X0.275000X-0.200000X0.275000X0.200000X0*%
%ADD28RoundRect,0.250000X-0.275000X-0.250000X0.275000X-0.250000X0.275000X0.250000X-0.275000X0.250000X0*%
%ADD29RoundRect,0.250000X-0.250000X-0.250000X0.250000X-0.250000X0.250000X0.250000X-0.250000X0.250000X0*%
%ADD30RoundRect,0.225000X-0.335876X-0.017678X-0.017678X-0.335876X0.335876X0.017678X0.017678X0.335876X0*%
%ADD31R,0.850000X2.000000*%
%ADD32RoundRect,0.250000X0.262500X0.450000X-0.262500X0.450000X-0.262500X-0.450000X0.262500X-0.450000X0*%
%ADD33RoundRect,0.225000X0.335876X0.017678X0.017678X0.335876X-0.335876X-0.017678X-0.017678X-0.335876X0*%
%ADD34RoundRect,0.200000X0.275000X-0.200000X0.275000X0.200000X-0.275000X0.200000X-0.275000X-0.200000X0*%
%ADD35RoundRect,0.225000X0.250000X-0.225000X0.250000X0.225000X-0.250000X0.225000X-0.250000X-0.225000X0*%
%ADD36RoundRect,0.225000X0.017678X-0.335876X0.335876X-0.017678X-0.017678X0.335876X-0.335876X0.017678X0*%
%ADD37RoundRect,0.225000X-0.017678X0.335876X-0.335876X0.017678X0.017678X-0.335876X0.335876X-0.017678X0*%
%ADD38RoundRect,0.150000X0.587500X0.150000X-0.587500X0.150000X-0.587500X-0.150000X0.587500X-0.150000X0*%
%ADD39R,1.520000X0.600000*%
%ADD40R,0.700000X1.200000*%
%ADD41RotRect,0.200000X0.800000X135.000000*%
%ADD42RotRect,0.800000X0.200000X135.000000*%
%ADD43RotRect,6.750000X6.750000X135.000000*%
%ADD44RoundRect,0.225000X-0.250000X0.225000X-0.250000X-0.225000X0.250000X-0.225000X0.250000X0.225000X0*%
%ADD45RoundRect,0.087500X0.220971X-0.097227X-0.097227X0.220971X-0.220971X0.097227X0.097227X-0.220971X0*%
%ADD46RoundRect,0.087500X0.220971X0.097227X0.097227X0.220971X-0.220971X-0.097227X-0.097227X-0.220971X0*%
%ADD47C,0.800000*%
%ADD48O,0.560000X1.400000*%
%ADD49R,4.300000X3.400000*%
%ADD50RoundRect,0.243750X-0.456250X0.243750X-0.456250X-0.243750X0.456250X-0.243750X0.456250X0.243750X0*%
%ADD51RoundRect,0.200000X0.335876X0.053033X0.053033X0.335876X-0.335876X-0.053033X-0.053033X-0.335876X0*%
%ADD52RoundRect,0.243750X0.456250X-0.243750X0.456250X0.243750X-0.456250X0.243750X-0.456250X-0.243750X0*%
%ADD53R,0.300000X1.300000*%
%ADD54R,1.800000X2.200000*%
%ADD55RoundRect,0.212500X-0.212500X0.212500X-0.212500X-0.212500X0.212500X-0.212500X0.212500X0.212500X0*%
%ADD56RoundRect,0.206250X-0.206250X0.206250X-0.206250X-0.206250X0.206250X-0.206250X0.206250X0.206250X0*%
%ADD57R,0.850000X2.500000*%
%ADD58R,0.800000X0.200000*%
%ADD59R,0.200000X0.800000*%
%ADD60R,1.700000X1.700000*%
%ADD61RoundRect,0.200000X-0.335876X-0.053033X-0.053033X-0.335876X0.335876X0.053033X0.053033X0.335876X0*%
%ADD62RoundRect,0.150000X-0.150000X-0.500000X0.150000X-0.500000X0.150000X0.500000X-0.150000X0.500000X0*%
%ADD63RoundRect,0.075000X-0.075000X-0.575000X0.075000X-0.575000X0.075000X0.575000X-0.075000X0.575000X0*%
%ADD64RoundRect,0.200000X-0.053033X0.335876X-0.335876X0.053033X0.053033X-0.335876X0.335876X-0.053033X0*%
%ADD65R,0.700000X1.700000*%
%ADD66R,1.800000X2.500000*%
G04 APERTURE END LIST*
D10*
G04 #@! TO.C,U9*
X163533497Y-76848549D03*
X162583497Y-76848549D03*
X161633497Y-76848549D03*
X161633497Y-79148549D03*
X162583497Y-79148549D03*
X163533497Y-79148549D03*
G04 #@! TD*
D11*
G04 #@! TO.C,R48*
X166941000Y-89916000D03*
X165291000Y-89916000D03*
G04 #@! TD*
D12*
G04 #@! TO.C,R36*
X147215530Y-122674160D03*
X148865530Y-122674160D03*
G04 #@! TD*
D13*
G04 #@! TO.C,Card1*
X140300000Y-116900000D03*
X140300000Y-115800000D03*
X140300000Y-114700000D03*
X140300000Y-113600000D03*
X140300000Y-112500000D03*
X140300000Y-111400000D03*
X140300000Y-110300000D03*
X140300000Y-109200000D03*
X140300000Y-108100000D03*
D14*
X139300000Y-106900000D03*
D15*
X129700000Y-106900000D03*
D16*
X139300000Y-121500000D03*
D15*
X129700000Y-122400000D03*
G04 #@! TD*
D17*
G04 #@! TO.C,SW5*
X124740000Y-81300000D03*
D18*
X124740000Y-77060000D03*
D19*
X126690000Y-80880000D03*
X126690000Y-77480000D03*
G04 #@! TD*
D20*
G04 #@! TO.C,L1*
X156075000Y-117580000D03*
X156075000Y-115920000D03*
G04 #@! TD*
D21*
G04 #@! TO.C,C8*
X157775000Y-108000000D03*
X156225000Y-108000000D03*
G04 #@! TD*
D22*
G04 #@! TO.C,Y1*
X144269579Y-100301047D03*
X142713944Y-98745412D03*
X141511863Y-99947493D03*
X143067498Y-101503128D03*
G04 #@! TD*
D12*
G04 #@! TO.C,R18*
X156085796Y-111103910D03*
X157735796Y-111103910D03*
G04 #@! TD*
D17*
G04 #@! TO.C,SW9*
X124740000Y-100380000D03*
D18*
X124740000Y-96140000D03*
D19*
X126690000Y-99960000D03*
X126690000Y-96560000D03*
G04 #@! TD*
D23*
G04 #@! TO.C,C32*
X156825000Y-79200000D03*
X158375000Y-79200000D03*
G04 #@! TD*
D24*
G04 #@! TO.C,U1*
X161574000Y-126625000D03*
X161574000Y-124975000D03*
X160374000Y-126625000D03*
X160374000Y-124975000D03*
D25*
X163449000Y-127705000D03*
X163449000Y-126435000D03*
X163449000Y-125165000D03*
X163449000Y-123895000D03*
X158499000Y-123895000D03*
X158499000Y-125165000D03*
X158499000Y-126435000D03*
X158499000Y-127705000D03*
G04 #@! TD*
D26*
G04 #@! TO.C,R26*
X141871053Y-87557880D03*
X143037779Y-86391154D03*
G04 #@! TD*
D17*
G04 #@! TO.C,SW6*
X124740000Y-71760000D03*
D18*
X124740000Y-67520000D03*
D19*
X126690000Y-71340000D03*
X126690000Y-67940000D03*
G04 #@! TD*
D27*
G04 #@! TO.C,R29*
X137900000Y-81875000D03*
X137900000Y-83525000D03*
G04 #@! TD*
D23*
G04 #@! TO.C,C30*
X162293000Y-105664000D03*
X163843000Y-105664000D03*
G04 #@! TD*
D12*
G04 #@! TO.C,R17*
X156175000Y-106500000D03*
X157825000Y-106500000D03*
G04 #@! TD*
D27*
G04 #@! TO.C,R34*
X133450000Y-68525000D03*
X133450000Y-70175000D03*
G04 #@! TD*
D12*
G04 #@! TO.C,R40*
X152525000Y-126875000D03*
X154175000Y-126875000D03*
G04 #@! TD*
D28*
G04 #@! TO.C,D5*
X162847994Y-81298751D03*
D29*
X164872994Y-81273751D03*
G04 #@! TD*
D21*
G04 #@! TO.C,C3*
X157875000Y-119750000D03*
X156325000Y-119750000D03*
G04 #@! TD*
D30*
G04 #@! TO.C,C16*
X158750000Y-100330000D03*
X159846016Y-101426016D03*
G04 #@! TD*
D12*
G04 #@! TO.C,R2*
X150768537Y-138204318D03*
X152418537Y-138204318D03*
G04 #@! TD*
D31*
G04 #@! TO.C,L2*
X159270000Y-110400000D03*
X160930000Y-110400000D03*
G04 #@! TD*
D12*
G04 #@! TO.C,R11*
X164565000Y-122600000D03*
X166215000Y-122600000D03*
G04 #@! TD*
D32*
G04 #@! TO.C,R9*
X167522545Y-124324517D03*
X165697545Y-124324517D03*
G04 #@! TD*
D33*
G04 #@! TO.C,C49*
X161076008Y-98084008D03*
X159979992Y-96987992D03*
G04 #@! TD*
D34*
G04 #@! TO.C,R12*
X166000000Y-110825000D03*
X166000000Y-109175000D03*
G04 #@! TD*
D21*
G04 #@! TO.C,C42*
X162863771Y-93387047D03*
X161313771Y-93387047D03*
G04 #@! TD*
D35*
G04 #@! TO.C,C5*
X162350000Y-110925000D03*
X162350000Y-109375000D03*
G04 #@! TD*
D27*
G04 #@! TO.C,R44*
X133425000Y-59325000D03*
X133425000Y-60975000D03*
G04 #@! TD*
D20*
G04 #@! TO.C,L4*
X165500000Y-78000000D03*
X165500000Y-76340000D03*
G04 #@! TD*
D36*
G04 #@! TO.C,C20*
X161249992Y-89956008D03*
X162346008Y-88859992D03*
G04 #@! TD*
D33*
G04 #@! TO.C,C31*
X144190088Y-97681104D03*
X143094072Y-96585088D03*
G04 #@! TD*
D21*
G04 #@! TO.C,C44*
X166383000Y-96266000D03*
X164833000Y-96266000D03*
G04 #@! TD*
D37*
G04 #@! TO.C,C27*
X140948008Y-97021992D03*
X139851992Y-98118008D03*
G04 #@! TD*
D11*
G04 #@! TO.C,R39*
X162625000Y-121225000D03*
X160975000Y-121225000D03*
G04 #@! TD*
D30*
G04 #@! TO.C,C29*
X145250000Y-98750000D03*
X146346016Y-99846016D03*
G04 #@! TD*
D34*
G04 #@! TO.C,R41*
X149600000Y-64325000D03*
X149600000Y-62675000D03*
G04 #@! TD*
D27*
G04 #@! TO.C,R20*
X167000000Y-112775000D03*
X167000000Y-114425000D03*
G04 #@! TD*
D33*
G04 #@! TO.C,C23*
X151048008Y-84548008D03*
X149951992Y-83451992D03*
G04 #@! TD*
D11*
G04 #@! TO.C,R1*
X143625000Y-122100000D03*
X141975000Y-122100000D03*
G04 #@! TD*
D17*
G04 #@! TO.C,SW4*
X124740000Y-90840000D03*
D18*
X124740000Y-86600000D03*
D19*
X126690000Y-90420000D03*
X126690000Y-87020000D03*
G04 #@! TD*
D20*
G04 #@! TO.C,L3*
X166000000Y-117330000D03*
X166000000Y-115670000D03*
G04 #@! TD*
D11*
G04 #@! TO.C,R14*
X164425000Y-119750000D03*
X162775000Y-119750000D03*
G04 #@! TD*
D12*
G04 #@! TO.C,R43*
X162350000Y-107800000D03*
X164000000Y-107800000D03*
G04 #@! TD*
D21*
G04 #@! TO.C,C41*
X166370000Y-92964000D03*
X164820000Y-92964000D03*
G04 #@! TD*
D38*
G04 #@! TO.C,Q1*
X143677500Y-128743084D03*
X143677500Y-126843084D03*
X141802500Y-127793084D03*
G04 #@! TD*
D39*
G04 #@! TO.C,SW1*
X127675000Y-129325000D03*
X127675000Y-132325000D03*
X127675000Y-133825000D03*
D40*
X126575000Y-127975000D03*
X124275000Y-127975000D03*
X126575000Y-135175000D03*
X124275000Y-135175000D03*
G04 #@! TD*
D36*
G04 #@! TO.C,C15*
X156613730Y-100337020D03*
X157709746Y-99241004D03*
G04 #@! TD*
D41*
G04 #@! TO.C,U3*
X158459798Y-92658832D03*
X158176956Y-92375989D03*
X157894113Y-92093146D03*
X157611270Y-91810303D03*
X157328428Y-91527461D03*
X157045585Y-91244618D03*
X156762742Y-90961775D03*
X156479899Y-90678933D03*
X156197057Y-90396090D03*
X155914214Y-90113247D03*
X155631371Y-89830404D03*
X155348529Y-89547562D03*
X155065686Y-89264719D03*
X154782843Y-88981876D03*
X154500000Y-88699034D03*
X154217158Y-88416191D03*
X153934315Y-88133348D03*
X153651472Y-87850505D03*
X153368630Y-87567663D03*
X153085787Y-87284820D03*
X152802944Y-87001977D03*
X152520101Y-86719135D03*
D42*
X151388731Y-86719135D03*
X151105888Y-87001977D03*
X150823045Y-87284820D03*
X150540202Y-87567663D03*
X150257360Y-87850505D03*
X149974517Y-88133348D03*
X149691674Y-88416191D03*
X149408832Y-88699034D03*
X149125989Y-88981876D03*
X148843146Y-89264719D03*
X148560303Y-89547562D03*
X148277461Y-89830404D03*
X147994618Y-90113247D03*
X147711775Y-90396090D03*
X147428933Y-90678933D03*
X147146090Y-90961775D03*
X146863247Y-91244618D03*
X146580404Y-91527461D03*
X146297562Y-91810303D03*
X146014719Y-92093146D03*
X145731876Y-92375989D03*
X145449034Y-92658832D03*
D41*
X145449034Y-93790202D03*
X145731876Y-94073045D03*
X146014719Y-94355888D03*
X146297562Y-94638731D03*
X146580404Y-94921573D03*
X146863247Y-95204416D03*
X147146090Y-95487259D03*
X147428933Y-95770101D03*
X147711775Y-96052944D03*
X147994618Y-96335787D03*
X148277461Y-96618630D03*
X148560303Y-96901472D03*
X148843146Y-97184315D03*
X149125989Y-97467158D03*
X149408832Y-97750000D03*
X149691674Y-98032843D03*
X149974517Y-98315686D03*
X150257360Y-98598529D03*
X150540202Y-98881371D03*
X150823045Y-99164214D03*
X151105888Y-99447057D03*
X151388731Y-99729899D03*
D42*
X152520101Y-99729899D03*
X152802944Y-99447057D03*
X153085787Y-99164214D03*
X153368630Y-98881371D03*
X153651472Y-98598529D03*
X153934315Y-98315686D03*
X154217158Y-98032843D03*
X154500000Y-97750000D03*
X154782843Y-97467158D03*
X155065686Y-97184315D03*
X155348529Y-96901472D03*
X155631371Y-96618630D03*
X155914214Y-96335787D03*
X156197057Y-96052944D03*
X156479899Y-95770101D03*
X156762742Y-95487259D03*
X157045585Y-95204416D03*
X157328428Y-94921573D03*
X157611270Y-94638731D03*
X157894113Y-94355888D03*
X158176956Y-94073045D03*
X158459798Y-93790202D03*
D43*
X151954416Y-93224517D03*
G04 #@! TD*
D34*
G04 #@! TO.C,R16*
X153625000Y-114350000D03*
X153625000Y-112700000D03*
G04 #@! TD*
D36*
G04 #@! TO.C,C38*
X165821992Y-87924008D03*
X166918008Y-86827992D03*
G04 #@! TD*
D44*
G04 #@! TO.C,C9*
X154075000Y-116000000D03*
X154075000Y-117550000D03*
G04 #@! TD*
D36*
G04 #@! TO.C,C19*
X153201992Y-84798008D03*
X154298008Y-83701992D03*
G04 #@! TD*
D23*
G04 #@! TO.C,C33*
X164975000Y-79420000D03*
X166525000Y-79420000D03*
G04 #@! TD*
D44*
G04 #@! TO.C,C12*
X167900000Y-115825000D03*
X167900000Y-117375000D03*
G04 #@! TD*
D23*
G04 #@! TO.C,C11*
X159275000Y-106950000D03*
X160825000Y-106950000D03*
G04 #@! TD*
D27*
G04 #@! TO.C,R27*
X141500000Y-78775000D03*
X141500000Y-80425000D03*
G04 #@! TD*
D34*
G04 #@! TO.C,R21*
X165500000Y-114425000D03*
X165500000Y-112775000D03*
G04 #@! TD*
D35*
G04 #@! TO.C,C34*
X137900000Y-80475000D03*
X137900000Y-78925000D03*
G04 #@! TD*
G04 #@! TO.C,C6*
X164100000Y-110925000D03*
X164100000Y-109375000D03*
G04 #@! TD*
D34*
G04 #@! TO.C,R7*
X166640000Y-74975000D03*
X166640000Y-73325000D03*
G04 #@! TD*
D45*
G04 #@! TO.C,U7*
X164375682Y-87458342D03*
X164729235Y-87104788D03*
X165082788Y-86751235D03*
X165436342Y-86397682D03*
D46*
X165082788Y-85814318D03*
X164729235Y-85460765D03*
X164375682Y-85107212D03*
D45*
X163792318Y-84753658D03*
X163438765Y-85107212D03*
X163085212Y-85460765D03*
X162731658Y-85814318D03*
D46*
X163085212Y-86397682D03*
X163438765Y-86751235D03*
X163792318Y-87104788D03*
G04 #@! TD*
D47*
G04 #@! TO.C,U6*
X147574000Y-109998000D03*
X147574000Y-110998000D03*
X148574000Y-109998000D03*
X148574000Y-110998000D03*
D48*
X146164000Y-114528000D03*
X147444000Y-114528000D03*
X148704000Y-114528000D03*
X149974000Y-114528000D03*
X149974000Y-106468000D03*
X148704000Y-106468000D03*
X147444000Y-106468000D03*
X146164000Y-106468000D03*
D49*
X148074000Y-110498000D03*
G04 #@! TD*
D50*
G04 #@! TO.C,D1*
X153007602Y-130739392D03*
X153007602Y-132614392D03*
G04 #@! TD*
D51*
G04 #@! TO.C,R49*
X166445363Y-84911363D03*
X165278637Y-83744637D03*
G04 #@! TD*
D12*
G04 #@! TO.C,R24*
X162243000Y-104164000D03*
X163893000Y-104164000D03*
G04 #@! TD*
D52*
G04 #@! TO.C,D4*
X168000000Y-110937500D03*
X168000000Y-109062500D03*
G04 #@! TD*
D51*
G04 #@! TO.C,R37*
X163397363Y-100405363D03*
X162230637Y-99238637D03*
G04 #@! TD*
D36*
G04 #@! TO.C,C18*
X145205116Y-86174532D03*
X146301132Y-85078516D03*
G04 #@! TD*
D51*
G04 #@! TO.C,R4*
X138083363Y-93283363D03*
X136916637Y-92116637D03*
G04 #@! TD*
D53*
G04 #@! TO.C,U5*
X158000000Y-71800000D03*
X157500000Y-71800000D03*
X157000000Y-71800000D03*
X156500000Y-71800000D03*
X156000000Y-71800000D03*
X155500000Y-71800000D03*
X155000000Y-71800000D03*
X154500000Y-71800000D03*
X154000000Y-71800000D03*
X153500000Y-71800000D03*
X153000000Y-71800000D03*
X152500000Y-71800000D03*
X152000000Y-71800000D03*
X151500000Y-71800000D03*
X151000000Y-71800000D03*
X150500000Y-71800000D03*
X150000000Y-71800000D03*
X149500000Y-71800000D03*
X149000000Y-71800000D03*
X148500000Y-71800000D03*
X148000000Y-71800000D03*
X147500000Y-71800000D03*
X147000000Y-71800000D03*
X146500000Y-71800000D03*
X146000000Y-71800000D03*
X145500000Y-71800000D03*
X145000000Y-71800000D03*
X144500000Y-71800000D03*
X144000000Y-71800000D03*
X143500000Y-71800000D03*
X143000000Y-71800000D03*
X142500000Y-71800000D03*
X142000000Y-71800000D03*
X141500000Y-71800000D03*
X141000000Y-71800000D03*
X140500000Y-71800000D03*
X140000000Y-71800000D03*
X139500000Y-71800000D03*
X139000000Y-71800000D03*
X138500000Y-71800000D03*
D54*
X159900000Y-68550000D03*
X136600000Y-68550000D03*
G04 #@! TD*
D55*
G04 #@! TO.C,D2*
X145765000Y-126822500D03*
D56*
X145752500Y-128935000D03*
G04 #@! TD*
D26*
G04 #@! TO.C,R23*
X159944637Y-88721363D03*
X161111363Y-87554637D03*
G04 #@! TD*
D36*
G04 #@! TO.C,C39*
X161757992Y-84876008D03*
X162854008Y-83779992D03*
G04 #@! TD*
D11*
G04 #@! TO.C,R10*
X156825000Y-129000000D03*
X155175000Y-129000000D03*
G04 #@! TD*
D57*
G04 #@! TO.C,J2*
X141755000Y-131800000D03*
X139215000Y-131800000D03*
X136675000Y-131800000D03*
X134135000Y-131800000D03*
X131595000Y-131800000D03*
X131595000Y-136300000D03*
X134135000Y-136300000D03*
X136675000Y-136300000D03*
X139215000Y-136300000D03*
X141755000Y-136300000D03*
G04 #@! TD*
D12*
G04 #@! TO.C,R13*
X165572568Y-127574517D03*
X167222568Y-127574517D03*
G04 #@! TD*
D44*
G04 #@! TO.C,C25*
X152400000Y-102857000D03*
X152400000Y-104407000D03*
G04 #@! TD*
D12*
G04 #@! TO.C,R35*
X147215530Y-121180160D03*
X148865530Y-121180160D03*
G04 #@! TD*
D35*
G04 #@! TO.C,C36*
X146400000Y-64275000D03*
X146400000Y-62725000D03*
G04 #@! TD*
D58*
G04 #@! TO.C,U2*
X159600000Y-114600000D03*
X159600000Y-115000000D03*
X159600000Y-115400000D03*
X159600000Y-115800000D03*
X159600000Y-116200000D03*
D59*
X160300000Y-116900000D03*
X160700000Y-116900000D03*
X161100000Y-116900000D03*
X161500000Y-116900000D03*
X161900000Y-116900000D03*
D58*
X162600000Y-116200000D03*
X162600000Y-115800000D03*
X162600000Y-115400000D03*
X162600000Y-115000000D03*
X162600000Y-114600000D03*
D59*
X161900000Y-113900000D03*
X161500000Y-113900000D03*
X161100000Y-113900000D03*
X160700000Y-113900000D03*
X160300000Y-113900000D03*
D60*
X161100000Y-115400000D03*
G04 #@! TD*
D61*
G04 #@! TO.C,R63*
X161060158Y-95884787D03*
X162226884Y-97051513D03*
G04 #@! TD*
D30*
G04 #@! TO.C,C13*
X157654932Y-101442072D03*
X158750948Y-102538088D03*
G04 #@! TD*
D36*
G04 #@! TO.C,C14*
X142951992Y-84048008D03*
X144048008Y-82951992D03*
G04 #@! TD*
D23*
G04 #@! TO.C,C2*
X165653416Y-126074517D03*
X167203416Y-126074517D03*
G04 #@! TD*
D36*
G04 #@! TO.C,C24*
X146317541Y-87235631D03*
X147413557Y-86139615D03*
G04 #@! TD*
D62*
G04 #@! TO.C,J1*
X145504416Y-140255000D03*
X146304416Y-140255000D03*
D63*
X147454416Y-140255000D03*
X148454416Y-140255000D03*
X148954416Y-140255000D03*
X149954416Y-140255000D03*
D62*
X151104416Y-140255000D03*
X151904416Y-140255000D03*
X151904416Y-140255000D03*
X151104416Y-140255000D03*
D63*
X150454416Y-140255000D03*
X149454416Y-140255000D03*
X147954416Y-140255000D03*
X146954416Y-140255000D03*
D62*
X146304416Y-140255000D03*
X145504416Y-140255000D03*
G04 #@! TD*
D30*
G04 #@! TO.C,C50*
X163375086Y-98186537D03*
X164471102Y-99282553D03*
G04 #@! TD*
D27*
G04 #@! TO.C,R30*
X162200000Y-73875000D03*
X162200000Y-75525000D03*
G04 #@! TD*
D17*
G04 #@! TO.C,SW2*
X124740000Y-62220000D03*
D18*
X124740000Y-57980000D03*
D19*
X126690000Y-61800000D03*
X126690000Y-58400000D03*
G04 #@! TD*
D44*
G04 #@! TO.C,C45*
X145500000Y-117225000D03*
X145500000Y-118775000D03*
G04 #@! TD*
D36*
G04 #@! TO.C,C22*
X141851992Y-82948008D03*
X142948008Y-81851992D03*
G04 #@! TD*
D30*
G04 #@! TO.C,C26*
X158750000Y-98080000D03*
X159846016Y-99176016D03*
G04 #@! TD*
D12*
G04 #@! TO.C,R8*
X147215530Y-119626160D03*
X148865530Y-119626160D03*
G04 #@! TD*
D64*
G04 #@! TO.C,R47*
X163651363Y-89840637D03*
X162484637Y-91007363D03*
G04 #@! TD*
D21*
G04 #@! TO.C,C43*
X166383000Y-94742000D03*
X164833000Y-94742000D03*
G04 #@! TD*
G04 #@! TO.C,C40*
X166370000Y-91440000D03*
X164820000Y-91440000D03*
G04 #@! TD*
D26*
G04 #@! TO.C,R22*
X154583274Y-85916726D03*
X155750000Y-84750000D03*
G04 #@! TD*
D53*
G04 #@! TO.C,U4*
X158000000Y-76700000D03*
X157500000Y-76700000D03*
X157000000Y-76700000D03*
X156500000Y-76700000D03*
X156000000Y-76700000D03*
X155500000Y-76700000D03*
X155000000Y-76700000D03*
X154500000Y-76700000D03*
X154000000Y-76700000D03*
X153500000Y-76700000D03*
X153000000Y-76700000D03*
X152500000Y-76700000D03*
X152000000Y-76700000D03*
X151500000Y-76700000D03*
X151000000Y-76700000D03*
X150500000Y-76700000D03*
X150000000Y-76700000D03*
X149500000Y-76700000D03*
X149000000Y-76700000D03*
X148500000Y-76700000D03*
X148000000Y-76700000D03*
X147500000Y-76700000D03*
X147000000Y-76700000D03*
X146500000Y-76700000D03*
X146000000Y-76700000D03*
X145500000Y-76700000D03*
X145000000Y-76700000D03*
X144500000Y-76700000D03*
X144000000Y-76700000D03*
X143500000Y-76700000D03*
X143000000Y-76700000D03*
X142500000Y-76700000D03*
X142000000Y-76700000D03*
X141500000Y-76700000D03*
X141000000Y-76700000D03*
X140500000Y-76700000D03*
X140000000Y-76700000D03*
X139500000Y-76700000D03*
X139000000Y-76700000D03*
X138500000Y-76700000D03*
D54*
X159900000Y-73450000D03*
X136600000Y-73450000D03*
G04 #@! TD*
D11*
G04 #@! TO.C,R19*
X157778035Y-109456603D03*
X156128035Y-109456603D03*
G04 #@! TD*
D21*
G04 #@! TO.C,C1*
X156150000Y-123925000D03*
X154600000Y-123925000D03*
G04 #@! TD*
D57*
G04 #@! TO.C,J3*
X165755000Y-132000000D03*
X163215000Y-132000000D03*
X160675000Y-132000000D03*
X158135000Y-132000000D03*
X155595000Y-132000000D03*
X155595000Y-136500000D03*
X158135000Y-136500000D03*
X160675000Y-136500000D03*
X163215000Y-136500000D03*
X165755000Y-136500000D03*
G04 #@! TD*
D30*
G04 #@! TO.C,C28*
X154981992Y-101991992D03*
X156078008Y-103088008D03*
G04 #@! TD*
D34*
G04 #@! TO.C,R15*
X155125000Y-114350000D03*
X155125000Y-112700000D03*
G04 #@! TD*
D12*
G04 #@! TO.C,R5*
X147175000Y-116500000D03*
X148825000Y-116500000D03*
G04 #@! TD*
D35*
G04 #@! TO.C,C7*
X156625000Y-114300000D03*
X156625000Y-112750000D03*
G04 #@! TD*
D27*
G04 #@! TO.C,R33*
X133450000Y-78125000D03*
X133450000Y-79775000D03*
G04 #@! TD*
D23*
G04 #@! TO.C,C4*
X159575000Y-119750000D03*
X161125000Y-119750000D03*
G04 #@! TD*
D36*
G04 #@! TO.C,C17*
X144067541Y-85116657D03*
X145163557Y-84020641D03*
G04 #@! TD*
D51*
G04 #@! TO.C,R25*
X141883363Y-85283363D03*
X140716637Y-84116637D03*
G04 #@! TD*
D61*
G04 #@! TO.C,R3*
X135816637Y-93216637D03*
X136983363Y-94383363D03*
G04 #@! TD*
D52*
G04 #@! TO.C,D3*
X152994976Y-136187432D03*
X152994976Y-134312432D03*
G04 #@! TD*
D65*
G04 #@! TO.C,U8*
X147520000Y-137045000D03*
X146280000Y-137045000D03*
D66*
X143820000Y-134545000D03*
X149980000Y-134545000D03*
G04 #@! TD*
D34*
G04 #@! TO.C,R28*
X168500000Y-75500000D03*
X168500000Y-73850000D03*
G04 #@! TD*
D12*
G04 #@! TO.C,R6*
X147175000Y-118000000D03*
X148825000Y-118000000D03*
G04 #@! TD*
D21*
G04 #@! TO.C,C35*
X161275000Y-81000000D03*
X159725000Y-81000000D03*
G04 #@! TD*
D33*
G04 #@! TO.C,C21*
X145204373Y-88619574D03*
X144108357Y-87523558D03*
G04 #@! TD*
D35*
G04 #@! TO.C,C10*
X168600000Y-114375000D03*
X168600000Y-112825000D03*
G04 #@! TD*
D27*
G04 #@! TO.C,R31*
X133450000Y-93625000D03*
X133450000Y-95275000D03*
G04 #@! TD*
D21*
G04 #@! TO.C,C37*
X156175000Y-122100000D03*
X154625000Y-122100000D03*
G04 #@! TD*
D34*
G04 #@! TO.C,R42*
X148000000Y-64325000D03*
X148000000Y-62675000D03*
G04 #@! TD*
D11*
G04 #@! TO.C,R38*
X159550000Y-121250000D03*
X157900000Y-121250000D03*
G04 #@! TD*
M02*
